<?xml version="1.0" encoding="UTF-8"?>
<svg data-name="Icon 24 x 24" xmlns="http://www.w3.org/2000/svg" viewBox="0 0 24 24">
  <path d="M19.7406,5.6737l2.2594-2.2595-1.4143-1.4142-2.2594,2.2594c-1.7241-1.411-3.9263-2.2594-6.3263-2.2594s-4.6022.8484-6.3263,2.2594l-2.2594-2.2594-1.4143,1.4142,2.2594,2.2595c-1.4111,1.7241-2.2594,3.9263-2.2594,6.3263s.8484,4.6022,2.2594,6.3263l-2.2594,2.2594,1.4143,1.4143,2.2594-2.2594c1.7241,1.411,3.9263,2.2594,6.3263,2.2594s4.6022-.8484,6.3263-2.2594l2.2594,2.2594,1.4143-1.4143-2.2594-2.2594c1.411-1.7241,2.2594-3.9263,2.2594-6.3263s-.8483-4.6022-2.2594-6.3263ZM12,4c1.8452,0,3.5419.6345,4.8971,1.6886l-4.8971,4.8971-4.8971-4.8971c1.3552-1.0541,3.0519-1.6886,4.8971-1.6886ZM4,12c0-1.8452.6345-3.5419,1.6886-4.8971l4.8971,4.8971-4.8971,4.8971c-1.0541-1.3552-1.6886-3.0519-1.6886-4.8971ZM12,20c-1.8452,0-3.5419-.6345-4.8971-1.6886l4.8971-4.8971,4.8971,4.8971c-1.3552,1.0541-3.0519,1.6886-4.8971,1.6886ZM13.4143,12l4.8971-4.8971c1.0541,1.3552,1.6886,3.0519,1.6886,4.8971s-.6345,3.5419-1.6886,4.8971l-4.8971-4.8971Z"/>
</svg>